<?xml version="1.0" encoding="UTF-8" standalone="yes"?>
<svg version="1.2" width="100%" viewBox="0 0 1080 1080" xml:space="preserve" baseProfile="tiny-ps" xmlns="http://www.w3.org/2000/svg">
  <title>bimi-svg-tiny-12-ps</title>
  <path fill="#000000" stroke="none" d="&#xA;M720.000000,1081.000000 &#xA;&#x9;C480.027649,1081.000000 240.555267,1081.000000 1.041456,1081.000000 &#xA;&#x9;C1.041456,721.069214 1.041456,361.138367 1.041456,1.103769 &#xA;&#x9;C360.889252,1.103769 720.778564,1.103769 1080.833984,1.103769 &#xA;&#x9;C1080.833984,360.999939 1080.833984,720.999939 1080.833984,1081.000000 &#xA;&#x9;C960.804504,1081.000000 840.652283,1081.000000 720.000000,1081.000000 &#xA;M855.083801,511.924286 &#xA;&#x9;C855.083801,511.924286 855.052734,511.916962 854.576050,511.188507 &#xA;&#x9;C831.495300,511.188507 808.414612,511.188507 785.006165,511.188507 &#xA;&#x9;C785.006165,512.910278 785.006165,514.215576 785.006165,515.520874 &#xA;&#x9;C785.006104,675.785706 785.003418,836.050537 785.045715,996.315369 &#xA;&#x9;C785.046082,997.821106 785.646301,999.326660 786.900208,1000.961487 &#xA;&#x9;C809.481934,1000.961487 832.063721,1000.961487 855.000000,1000.961487 &#xA;&#x9;C855.000000,998.130493 855.000000,995.987183 855.000000,993.843933 &#xA;&#x9;C855.000000,894.391541 854.999084,794.939087 855.006348,695.486694 &#xA;&#x9;C855.006531,693.323669 855.101807,691.160645 855.897827,688.562378 &#xA;&#x9;C855.931763,630.538147 855.969482,572.513855 855.962036,514.489624 &#xA;&#x9;C855.961914,513.644104 855.398071,512.798706 855.083801,511.924286 &#xA;M289.787781,1000.449951 &#xA;&#x9;C289.856262,999.456909 289.984558,998.463928 289.984680,997.470886 &#xA;&#x9;C289.994080,930.882690 289.994324,864.294556 289.982666,797.706360 &#xA;&#x9;C289.982483,796.592773 289.826508,795.479126 289.735046,794.256165 &#xA;&#x9;C288.796417,794.145325 288.160370,794.004944 287.524261,794.004517 &#xA;&#x9;C266.049622,793.989563 244.574921,793.974304 223.100388,794.027588 &#xA;&#x9;C222.117752,794.030029 221.136688,794.666016 220.035583,795.936707 &#xA;&#x9;C220.035583,864.154724 220.035583,932.372681 220.035583,1000.832214 &#xA;&#x9;C243.466766,1000.832214 266.250122,1000.832214 289.787781,1000.449951 &#xA;M479.126801,739.132263 &#xA;&#x9;C478.698395,736.414062 478.269989,733.695923 477.528564,730.172974 &#xA;&#x9;C454.444977,730.172974 431.361420,730.172974 408.206482,730.172974 &#xA;&#x9;C408.146210,731.313049 408.081726,731.963257 408.081696,732.613525 &#xA;&#x9;C408.076294,820.774353 408.072662,908.935181 408.105072,997.096008 &#xA;&#x9;C408.105530,998.334167 408.562134,999.572266 409.757935,1000.955017 &#xA;&#x9;C428.648621,1000.969482 447.539337,1000.987488 466.430023,1000.997131 &#xA;&#x9;C479.198029,1001.003662 479.198029,1000.998413 478.994934,987.087952 &#xA;&#x9;C478.973145,904.715393 478.951324,822.342773 479.126801,739.132263 &#xA;M665.092041,649.037476 &#xA;&#x9;C642.439087,649.069763 619.786194,649.102112 596.224609,649.196594 &#xA;&#x9;C596.149597,661.578552 596.057861,673.960510 596.035339,686.342529 &#xA;&#x9;C596.033752,687.213623 596.543701,688.085571 596.957581,689.890442 &#xA;&#x9;C596.957581,793.450195 596.957581,897.009888 596.957581,1000.836792 &#xA;&#x9;C620.450317,1000.836792 643.237610,1000.836792 666.798584,1000.478394 &#xA;&#x9;C666.865723,998.485901 666.991394,996.493469 666.991577,994.500977 &#xA;&#x9;C667.001160,895.097168 666.984741,795.693298 667.042542,696.289490 &#xA;&#x9;C667.045593,691.025024 667.981506,685.757935 667.930542,680.497375 &#xA;&#x9;C667.837402,670.879150 667.352539,661.263977 666.958008,651.650574 &#xA;&#x9;C666.923523,650.810059 666.348938,649.991760 665.092041,649.037476 &#xA;M293.014221,598.511658 &#xA;&#x9;C300.875000,592.601379 308.823181,586.803345 316.579559,580.759094 &#xA;&#x9;C337.064514,564.795959 357.455078,548.711792 377.911621,532.712158 &#xA;&#x9;C381.460846,529.936218 387.248871,530.019348 390.139038,532.872498 &#xA;&#x9;C397.872070,540.506287 405.572906,548.173401 413.221588,555.891663 &#xA;&#x9;C423.829315,566.595825 434.357086,577.379150 444.958313,588.089783 &#xA;&#x9;C453.254333,596.471497 461.767944,604.644714 469.869293,613.209167 &#xA;&#x9;C473.654175,617.210327 474.483551,618.058716 478.985931,613.465088 &#xA;&#x9;C487.259979,605.023315 495.456604,596.503906 503.827576,588.159424 &#xA;&#x9;C513.668884,578.349243 523.749207,568.778259 533.565552,558.943604 &#xA;&#x9;C544.930237,547.557495 556.037354,535.914246 567.410706,524.536987 &#xA;&#x9;C577.993469,513.950684 588.867737,503.655853 599.450562,493.069702 &#xA;&#x9;C610.309448,482.207367 620.878662,471.055328 631.743164,460.198730 &#xA;&#x9;C643.853210,448.097595 656.184143,436.217804 668.360168,424.182190 &#xA;&#x9;C677.339172,415.306702 686.242188,406.353882 695.145996,397.402649 &#xA;&#x9;C707.126709,385.358093 719.031006,373.237183 731.049561,361.230560 &#xA;&#x9;C745.893616,346.401276 760.797180,331.631226 775.725708,316.886810 &#xA;&#x9;C781.038025,311.639893 786.225769,311.700897 791.377441,316.878296 &#xA;&#x9;C803.469116,329.030121 815.540527,341.202148 827.652161,353.334015 &#xA;&#x9;C829.221191,354.905640 830.979492,356.288239 833.553589,358.553528 &#xA;&#x9;C834.237122,354.152100 834.596436,350.794800 835.296448,347.510101 &#xA;&#x9;C838.566650,332.164703 841.924744,316.837952 845.262878,301.507019 &#xA;&#x9;C849.887024,280.269836 854.380310,259.002808 859.193237,237.808411 &#xA;&#x9;C863.536255,218.683334 868.255981,199.643997 872.731445,180.548523 &#xA;&#x9;C873.067017,179.116608 872.775452,177.537704 872.775452,175.706711 &#xA;&#x9;C811.781250,189.061340 751.510986,202.257446 691.240784,215.453552 &#xA;&#x9;C690.884277,216.262634 690.527771,217.071701 690.171265,217.880768 &#xA;&#x9;C703.113953,230.271439 716.071167,242.646912 728.994202,255.058060 &#xA;&#x9;C738.051025,263.756134 738.124329,268.084717 729.691650,275.972565 &#xA;&#x9;C721.691711,283.455566 714.454834,291.747070 706.682190,299.481750 &#xA;&#x9;C691.203430,314.884766 675.522766,330.084839 660.041687,345.485504 &#xA;&#x9;C630.913696,374.462250 601.866272,403.519989 572.789001,432.547729 &#xA;&#x9;C558.168884,447.143005 543.549988,461.739594 528.942810,476.347809 &#xA;&#x9;C513.840698,491.451050 498.745972,506.561676 483.662720,521.683716 &#xA;&#x9;C476.564972,528.799744 471.322937,528.786560 464.070923,521.543152 &#xA;&#x9;C447.741882,505.233307 431.361755,488.973969 415.123810,472.573914 &#xA;&#x9;C407.738373,465.114838 400.516754,457.483002 393.472717,449.701538 &#xA;&#x9;C390.577026,446.502686 388.342590,446.653870 385.169556,449.216553 &#xA;&#x9;C376.259033,456.413025 367.178741,463.400696 358.118561,470.410187 &#xA;&#x9;C340.571503,483.985565 322.924103,497.432190 305.445374,511.094696 &#xA;&#x9;C287.417999,525.186035 269.583435,539.523804 251.585831,553.653564 &#xA;&#x9;C238.353470,564.042175 225.056305,574.351257 211.639648,584.499573 &#xA;&#x9;C208.923523,586.554016 209.124283,588.132019 210.914413,590.425537 &#xA;&#x9;C221.462799,603.940186 232.108261,617.382935 242.409805,631.083862 &#xA;&#x9;C245.147324,634.724731 247.422684,634.497681 250.437714,632.080505 &#xA;&#x9;C253.833740,629.357788 257.198334,626.595154 260.624359,623.910828 &#xA;&#x9;C271.234344,615.597595 281.866974,607.313416 293.014221,598.511658 &#xA;M363.890900,127.481758 &#xA;&#x9;C355.931122,137.810287 348.760712,148.552368 343.450531,160.594482 &#xA;&#x9;C337.169067,174.839249 333.230560,189.636169 332.071594,205.034088 &#xA;&#x9;C330.976593,219.582214 332.426666,234.048996 335.870941,248.311691 &#xA;&#x9;C339.883820,264.929169 346.791046,280.432678 356.810150,293.975311 &#xA;&#x9;C364.536438,304.418732 374.125549,313.806610 384.147980,322.147980 &#xA;&#x9;C397.030914,332.869995 412.111572,340.406281 428.343719,344.905914 &#xA;&#x9;C445.124207,349.557556 462.303802,351.912994 479.688812,348.984283 &#xA;&#x9;C490.627686,347.141479 501.728210,345.360901 512.214172,341.906769 &#xA;&#x9;C536.570374,333.883698 556.443237,319.098785 572.400391,299.003784 &#xA;&#x9;C582.172668,286.697357 590.007996,273.142914 594.664429,258.296722 &#xA;&#x9;C599.813293,241.880386 603.165161,224.887543 601.058472,207.392975 &#xA;&#x9;C600.291626,201.024765 600.195557,194.482071 598.604675,188.326187 &#xA;&#x9;C595.226013,175.252213 591.243408,162.387192 584.393066,150.491623 &#xA;&#x9;C575.533508,135.106888 564.760071,121.360901 550.914307,110.346741 &#xA;&#x9;C537.148560,99.396156 521.700134,91.558357 504.659149,86.475365 &#xA;&#x9;C492.391510,82.816154 479.933075,81.978767 467.421326,81.055519 &#xA;&#x9;C462.036407,80.658165 456.483582,81.170326 451.128876,82.029045 &#xA;&#x9;C441.634308,83.551643 431.900757,84.667000 422.857300,87.707718 &#xA;&#x9;C399.914795,95.421753 380.536591,108.900917 363.890900,127.481758 &#xA;z"/>
  <path fill="#3AB54B" stroke="none" d="&#xA;M292.752502,598.764771 &#xA;&#x9;C281.866974,607.313416 271.234344,615.597595 260.624359,623.910828 &#xA;&#x9;C257.198334,626.595154 253.833740,629.357788 250.437714,632.080505 &#xA;&#x9;C247.422684,634.497681 245.147324,634.724731 242.409805,631.083862 &#xA;&#x9;C232.108261,617.382935 221.462799,603.940186 210.914413,590.425537 &#xA;&#x9;C209.124283,588.132019 208.923523,586.554016 211.639648,584.499573 &#xA;&#x9;C225.056305,574.351257 238.353470,564.042175 251.585831,553.653564 &#xA;&#x9;C269.583435,539.523804 287.417999,525.186035 305.445374,511.094696 &#xA;&#x9;C322.924103,497.432190 340.571503,483.985565 358.118561,470.410187 &#xA;&#x9;C367.178741,463.400696 376.259033,456.413025 385.169556,449.216553 &#xA;&#x9;C388.342590,446.653870 390.577026,446.502686 393.472717,449.701538 &#xA;&#x9;C400.516754,457.483002 407.738373,465.114838 415.123810,472.573914 &#xA;&#x9;C431.361755,488.973969 447.741882,505.233307 464.070923,521.543152 &#xA;&#x9;C471.322937,528.786560 476.564972,528.799744 483.662720,521.683716 &#xA;&#x9;C498.745972,506.561676 513.840698,491.451050 528.942810,476.347809 &#xA;&#x9;C543.549988,461.739594 558.168884,447.143005 572.789001,432.547729 &#xA;&#x9;C601.866272,403.519989 630.913696,374.462250 660.041687,345.485504 &#xA;&#x9;C675.522766,330.084839 691.203430,314.884766 706.682190,299.481750 &#xA;&#x9;C714.454834,291.747070 721.691711,283.455566 729.691650,275.972565 &#xA;&#x9;C738.124329,268.084717 738.051025,263.756134 728.994202,255.058060 &#xA;&#x9;C716.071167,242.646912 703.113953,230.271439 690.171265,217.880768 &#xA;&#x9;C690.527771,217.071701 690.884277,216.262634 691.240784,215.453552 &#xA;&#x9;C751.510986,202.257446 811.781250,189.061340 872.775452,175.706711 &#xA;&#x9;C872.775452,177.537704 873.067017,179.116608 872.731445,180.548523 &#xA;&#x9;C868.255981,199.643997 863.536255,218.683334 859.193237,237.808411 &#xA;&#x9;C854.380310,259.002808 849.887024,280.269836 845.262878,301.507019 &#xA;&#x9;C841.924744,316.837952 838.566650,332.164703 835.296448,347.510101 &#xA;&#x9;C834.596436,350.794800 834.237122,354.152100 833.553589,358.553528 &#xA;&#x9;C830.979492,356.288239 829.221191,354.905640 827.652161,353.334015 &#xA;&#x9;C815.540527,341.202148 803.469116,329.030121 791.377441,316.878296 &#xA;&#x9;C786.225769,311.700897 781.038025,311.639893 775.725708,316.886810 &#xA;&#x9;C760.797180,331.631226 745.893616,346.401276 731.049561,361.230560 &#xA;&#x9;C719.031006,373.237183 707.126709,385.358093 695.145996,397.402649 &#xA;&#x9;C686.242188,406.353882 677.339172,415.306702 668.360168,424.182190 &#xA;&#x9;C656.184143,436.217804 643.853210,448.097595 631.743164,460.198730 &#xA;&#x9;C620.878662,471.055328 610.309448,482.207367 599.450562,493.069702 &#xA;&#x9;C588.867737,503.655853 577.993469,513.950684 567.410706,524.536987 &#xA;&#x9;C556.037354,535.914246 544.930237,547.557495 533.565552,558.943604 &#xA;&#x9;C523.749207,568.778259 513.668884,578.349243 503.827576,588.159424 &#xA;&#x9;C495.456604,596.503906 487.259979,605.023315 478.985931,613.465088 &#xA;&#x9;C474.483551,618.058716 473.654175,617.210327 469.869293,613.209167 &#xA;&#x9;C461.767944,604.644714 453.254333,596.471497 444.958313,588.089783 &#xA;&#x9;C434.357086,577.379150 423.829315,566.595825 413.221588,555.891663 &#xA;&#x9;C405.572906,548.173401 397.872070,540.506287 390.139038,532.872498 &#xA;&#x9;C387.248871,530.019348 381.460846,529.936218 377.911621,532.712158 &#xA;&#x9;C357.455078,548.711792 337.064514,564.795959 316.579559,580.759094 &#xA;&#x9;C308.823181,586.803345 300.875000,592.601379 292.752502,598.764771 &#xA;z"/>
  <path fill="#329E41" stroke="none" d="&#xA;M364.138550,127.222641 &#xA;&#x9;C380.536591,108.900917 399.914795,95.421753 422.857300,87.707718 &#xA;&#x9;C431.900757,84.667000 441.634308,83.551643 451.128876,82.029045 &#xA;&#x9;C456.483582,81.170326 462.036407,80.658165 467.421326,81.055519 &#xA;&#x9;C479.933075,81.978767 492.391510,82.816154 504.659149,86.475365 &#xA;&#x9;C521.700134,91.558357 537.148560,99.396156 550.914307,110.346741 &#xA;&#x9;C564.760071,121.360901 575.533508,135.106888 584.393066,150.491623 &#xA;&#x9;C591.243408,162.387192 595.226013,175.252213 598.604675,188.326187 &#xA;&#x9;C600.195557,194.482071 600.291626,201.024765 601.058472,207.392975 &#xA;&#x9;C603.165161,224.887543 599.813293,241.880386 594.664429,258.296722 &#xA;&#x9;C590.007996,273.142914 582.172668,286.697357 572.400391,299.003784 &#xA;&#x9;C556.443237,319.098785 536.570374,333.883698 512.214172,341.906769 &#xA;&#x9;C501.728210,345.360901 490.627686,347.141479 479.688812,348.984283 &#xA;&#x9;C462.303802,351.912994 445.124207,349.557556 428.343719,344.905914 &#xA;&#x9;C412.111572,340.406281 397.030914,332.869995 384.147980,322.147980 &#xA;&#x9;C374.125549,313.806610 364.536438,304.418732 356.810150,293.975311 &#xA;&#x9;C346.791046,280.432678 339.883820,264.929169 335.870941,248.311691 &#xA;&#x9;C332.426666,234.048996 330.976593,219.582214 332.071594,205.034088 &#xA;&#x9;C333.230560,189.636169 337.169067,174.839249 343.450531,160.594482 &#xA;&#x9;C348.760712,148.552368 355.931122,137.810287 364.138550,127.222641 &#xA;z"/>
  <path fill="#39B54A" stroke="none" d="&#xA;M855.152771,688.997620 &#xA;&#x9;C855.101807,691.160645 855.006531,693.323669 855.006348,695.486694 &#xA;&#x9;C854.999084,794.939087 855.000000,894.391541 855.000000,993.843933 &#xA;&#x9;C855.000000,995.987183 855.000000,998.130493 855.000000,1000.961487 &#xA;&#x9;C832.063721,1000.961487 809.481934,1000.961487 786.438110,1000.439087 &#xA;&#x9;C785.980591,839.711853 785.984558,679.506958 785.992126,519.302124 &#xA;&#x9;C785.992432,512.086243 786.007568,512.084229 793.106812,512.066711 &#xA;&#x9;C813.755432,512.015808 834.404114,511.966736 855.052734,511.916931 &#xA;&#x9;C855.052734,511.916962 855.083801,511.924286 855.049194,512.408569 &#xA;&#x9;C855.009705,551.142395 854.987183,589.391846 855.007141,627.641357 &#xA;&#x9;C855.017883,648.093445 855.101868,668.545532 855.152771,688.997620 &#xA;z"/>
  <path fill="#39B54A" stroke="none" d="&#xA;M666.024963,1000.836792 &#xA;&#x9;C643.237610,1000.836792 620.450317,1000.836792 596.957581,1000.836792 &#xA;&#x9;C596.957581,897.009888 596.957581,793.450195 596.947021,688.960938 &#xA;&#x9;C597.002014,675.065796 597.067627,662.100159 597.133240,649.134460 &#xA;&#x9;C619.786194,649.102112 642.439087,649.069763 665.553284,649.558411 &#xA;&#x9;C666.018005,766.998474 666.021484,883.917664 666.024963,1000.836792 &#xA;z"/>
  <path fill="#3AB54B" stroke="none" d="&#xA;M477.841583,730.977722 &#xA;&#x9;C478.269989,733.695923 478.698395,736.414062 478.656006,739.775818 &#xA;&#x9;C478.127716,740.913757 478.019836,741.408081 478.019775,741.902466 &#xA;&#x9;C478.008850,822.758850 478.001770,903.615295 478.040771,984.471680 &#xA;&#x9;C478.041321,985.657959 478.620361,986.843933 478.929443,988.030090 &#xA;&#x9;C479.198029,1000.998413 479.198029,1001.003662 466.430023,1000.997131 &#xA;&#x9;C447.539337,1000.987488 428.648621,1000.969482 409.273102,1000.425659 &#xA;&#x9;C408.788208,912.457947 408.786407,825.019592 408.791595,737.581299 &#xA;&#x9;C408.791992,731.016052 408.815247,731.001465 415.385742,730.997375 &#xA;&#x9;C436.204346,730.984375 457.022980,730.983337 477.841583,730.977722 &#xA;z"/>
  <path fill="#39B54A" stroke="none" d="&#xA;M289.033508,1000.832214 &#xA;&#x9;C266.250122,1000.832214 243.466766,1000.832214 220.035583,1000.832214 &#xA;&#x9;C220.035583,932.372681 220.035583,864.154724 220.553680,795.476685 &#xA;&#x9;C241.228104,795.020996 261.384430,795.021790 281.540741,795.031372 &#xA;&#x9;C288.995056,795.034912 289.007233,795.044312 289.008453,802.433960 &#xA;&#x9;C289.019409,868.566711 289.025787,934.699463 289.033508,1000.832214 &#xA;z"/>
  <path fill="#5CBF6A" stroke="none" d="&#xA;M854.814392,511.552734 &#xA;&#x9;C834.404114,511.966736 813.755432,512.015808 793.106812,512.066711 &#xA;&#x9;C786.007568,512.084229 785.992432,512.086243 785.992126,519.302124 &#xA;&#x9;C785.984558,679.506958 785.980591,839.711853 785.971191,1000.374512 &#xA;&#x9;C785.646301,999.326660 785.046082,997.821106 785.045715,996.315369 &#xA;&#x9;C785.003418,836.050537 785.006104,675.785706 785.006165,515.520874 &#xA;&#x9;C785.006165,514.215576 785.006165,512.910278 785.006165,511.188507 &#xA;&#x9;C808.414612,511.188507 831.495300,511.188507 854.814392,511.552734 &#xA;z"/>
  <path fill="#64C171" stroke="none" d="&#xA;M666.411743,1000.657593 &#xA;&#x9;C666.021484,883.917664 666.018005,766.998474 666.019897,649.621216 &#xA;&#x9;C666.348938,649.991760 666.923523,650.810059 666.958008,651.650574 &#xA;&#x9;C667.352539,661.263977 667.837402,670.879150 667.930542,680.497375 &#xA;&#x9;C667.981506,685.757935 667.045593,691.025024 667.042542,696.289490 &#xA;&#x9;C666.984741,795.693298 667.001160,895.097168 666.991577,994.500977 &#xA;&#x9;C666.991394,996.493469 666.865723,998.485901 666.411743,1000.657593 &#xA;z"/>
  <path fill="#90CE98" stroke="none" d="&#xA;M477.685059,730.575317 &#xA;&#x9;C457.022980,730.983337 436.204346,730.984375 415.385742,730.997375 &#xA;&#x9;C408.815247,731.001465 408.791992,731.016052 408.791595,737.581299 &#xA;&#x9;C408.786407,825.019592 408.788208,912.457947 408.797058,1000.353271 &#xA;&#x9;C408.562134,999.572266 408.105530,998.334167 408.105072,997.096008 &#xA;&#x9;C408.072662,908.935181 408.076294,820.774353 408.081696,732.613525 &#xA;&#x9;C408.081726,731.963257 408.146210,731.313049 408.206482,730.172974 &#xA;&#x9;C431.361420,730.172974 454.444977,730.172974 477.685059,730.575317 &#xA;z"/>
  <path fill="#5CBF6A" stroke="none" d="&#xA;M289.410645,1000.641113 &#xA;&#x9;C289.025787,934.699463 289.019409,868.566711 289.008453,802.433960 &#xA;&#x9;C289.007233,795.044312 288.995056,795.034912 281.540741,795.031372 &#xA;&#x9;C261.384430,795.021790 241.228104,795.020996 220.613327,795.011780 &#xA;&#x9;C221.136688,794.666016 222.117752,794.030029 223.100388,794.027588 &#xA;&#x9;C244.574921,793.974304 266.049622,793.989563 287.524261,794.004517 &#xA;&#x9;C288.160370,794.004944 288.796417,794.145325 289.735046,794.256165 &#xA;&#x9;C289.826508,795.479126 289.982483,796.592773 289.982666,797.706360 &#xA;&#x9;C289.994324,864.294556 289.994080,930.882690 289.984680,997.470886 &#xA;&#x9;C289.984558,998.463928 289.856262,999.456909 289.410645,1000.641113 &#xA;z"/>
  <path fill="#FFFFFF" stroke="none" d="&#xA;M478.962189,987.559021 &#xA;&#x9;C478.620361,986.843933 478.041321,985.657959 478.040771,984.471680 &#xA;&#x9;C478.001770,903.615295 478.008850,822.758850 478.019775,741.902466 &#xA;&#x9;C478.019836,741.408081 478.127716,740.913757 478.557373,740.194824 &#xA;&#x9;C478.951324,822.342773 478.973145,904.715393 478.962189,987.559021 &#xA;z"/>
  <path fill="#FFFFFF" stroke="none" d="&#xA;M855.525330,688.780029 &#xA;&#x9;C855.101868,668.545532 855.017883,648.093445 855.007141,627.641357 &#xA;&#x9;C854.987183,589.391846 855.009705,551.142395 855.055908,512.423096 &#xA;&#x9;C855.398071,512.798706 855.961914,513.644104 855.962036,514.489624 &#xA;&#x9;C855.969482,572.513855 855.931763,630.538147 855.525330,688.780029 &#xA;z"/>
  <path fill="#BDDBBF" stroke="none" d="&#xA;M596.678955,649.165527 &#xA;&#x9;C597.067627,662.100159 597.002014,675.065796 596.876099,688.494324 &#xA;&#x9;C596.543701,688.085571 596.033752,687.213623 596.035339,686.342529 &#xA;&#x9;C596.057861,673.960510 596.149597,661.578552 596.678955,649.165527 &#xA;z"/>
</svg>